<svg xmlns="http://www.w3.org/2000/svg" viewBox="0 0 200 305">
  <defs>
    <linearGradient id="body" x1="0" y1="0" x2="0" y2="1">
      <stop offset="0%" stop-color="#065f46"/>
      <stop offset="100%" stop-color="#047857"/>
    </linearGradient>
    <linearGradient id="thobe" x1="0" y1="0" x2="0" y2="1">
      <stop offset="0%" stop-color="#f0fdf4"/>
      <stop offset="100%" stop-color="#dcfce7"/>
    </linearGradient>
    <linearGradient id="mat" x1="0" y1="0" x2="0" y2="1">
      <stop offset="0%" stop-color="#d4af37"/>
      <stop offset="100%" stop-color="#b8960c"/>
    </linearGradient>
    <linearGradient id="water" x1="0" y1="0" x2="0" y2="1">
      <stop offset="0%" stop-color="#93c5fd"/>
      <stop offset="100%" stop-color="#3b82f6"/>
    </linearGradient>
    <filter id="shadow" x="-5%" y="-5%" width="110%" height="115%">
      <feDropShadow dx="0" dy="2" stdDeviation="3" flood-color="#000" flood-opacity="0.15"/>
    </filter>
  </defs>

  <circle cx="100" cy="55" r="24" fill="url(#thobe)" stroke="#d1d5db" stroke-width="1"/>
  <ellipse cx="100" cy="42" rx="20" ry="9" fill="#065f46"/>
  <ellipse cx="100" cy="36" rx="16" ry="6" fill="#065f46" opacity="0.8"/>
  <rect x="94" y="77" width="12" height="8" rx="3" fill="url(#thobe)"/>
  <path d="M78 85 Q76 140 78 195 L122 195 Q124 140 122 85 Z" fill="url(#thobe)" stroke="#d1d5db" stroke-width="0.5"/>
  <!-- Arm bringing water to mouth -->
  <path d="M80 100 Q55 105 50 90 Q48 80 55 75" stroke="url(#thobe)" stroke-width="12" fill="none" stroke-linecap="round"/>
  <circle cx="52" cy="72" r="6" fill="#fbbf24" opacity="0.7"/>
  <!-- Water at mouth -->
  <circle cx="100" cy="65" r="2" fill="url(#water)" opacity="0.6"/>
  <circle cx="97" cy="70" r="1.5" fill="url(#water)" opacity="0.4"/>
  <!-- Legs -->
  <path d="M88 195 Q86 225 84 255 L94 255 Q96 225 98 195" fill="url(#thobe)" stroke="#d1d5db" stroke-width="0.5"/>
  <path d="M102 195 Q104 225 106 255 L116 255 Q114 225 112 195" fill="url(#thobe)" stroke="#d1d5db" stroke-width="0.5"/>
  <ellipse cx="89" cy="262" rx="9" ry="5" fill="#fbbf24" opacity="0.6"/>
  <ellipse cx="111" cy="262" rx="9" ry="5" fill="#fbbf24" opacity="0.6"/>
  <text x="100" y="290" text-anchor="middle" fill="#065f46" font-family="Inter,sans-serif" font-size="14" font-weight="700">3. Rinse Mouth (3×)</text>

</svg>